<svg width="1024" height="768" viewBox="0 0 1024 768" fill="none" xmlns="http://www.w3.org/2000/svg">
<path d="M399.086 174.093C451.782 146.472 517.98 142.222 574.45 159.91C577.98 161.02 581.482 162.212 584.955 163.487C588.428 164.762 591.87 166.117 595.28 167.554C598.689 168.99 602.063 170.506 605.402 172.101C608.741 173.696 612.04 175.369 615.299 177.12C618.559 178.871 621.776 180.697 624.95 182.599C628.123 184.501 631.25 186.476 634.331 188.525C637.412 190.574 640.443 192.695 643.424 194.886C646.405 197.078 649.333 199.339 652.208 201.668L651.262 203.671C648.577 201.5 645.847 199.39 643.07 197.339C640.293 195.288 637.473 193.298 634.61 191.37C631.747 189.442 628.842 187.577 625.897 185.776C622.952 183.975 619.969 182.239 616.948 180.568C613.927 178.897 610.872 177.293 607.781 175.756C604.69 174.219 601.566 172.749 598.411 171.348C595.256 169.947 592.072 168.616 588.859 167.354C585.646 166.093 582.406 164.902 579.141 163.781C577.328 163.162 575.507 162.565 573.679 161.99C571.85 161.415 570.015 160.864 568.174 160.335C566.332 159.806 564.484 159.3 562.629 158.817C560.775 158.334 558.915 157.874 557.049 157.437C555.183 157 553.312 156.586 551.436 156.195C549.56 155.805 547.679 155.438 545.794 155.094C543.909 154.75 542.02 154.429 540.127 154.132C538.234 153.835 536.337 153.561 534.437 153.311C532.538 153.061 530.635 152.835 528.729 152.632C526.824 152.429 524.916 152.249 523.006 152.094C521.096 151.939 519.184 151.807 517.271 151.698C515.358 151.59 513.444 151.506 511.529 151.445C509.613 151.384 507.697 151.347 505.781 151.334C503.865 151.321 501.949 151.331 500.033 151.366C498.117 151.4 496.202 151.458 494.287 151.54C492.372 151.621 490.459 151.727 488.547 151.856C486.635 151.985 484.725 152.138 482.817 152.315C480.909 152.492 479.003 152.692 477.1 152.915C475.197 153.139 473.297 153.387 471.4 153.658C469.503 153.929 467.609 154.223 465.72 154.541C463.83 154.859 461.944 155.2 460.063 155.565C458.182 155.93 456.305 156.317 454.434 156.728C452.562 157.139 450.696 157.574 448.835 158.031C446.974 158.488 445.119 158.969 443.27 159.473C441.421 159.976 439.579 160.502 437.743 161.051C435.907 161.6 434.078 162.172 432.256 162.767C430.435 163.362 428.621 163.979 426.814 164.618C425.007 165.257 423.209 165.919 421.419 166.603C419.629 167.287 417.848 167.993 416.076 168.721C414.303 169.45 412.54 170.2 410.786 170.972C409.032 171.744 407.288 172.537 405.554 173.352C403.819 174.167 402.095 175.004 400.382 175.862L399.086 174.093Z" fill="#16A34A"/>
<path d="M400.382 175.862C402.095 175.004 403.819 174.167 405.554 173.352C407.288 172.537 409.032 171.744 410.786 170.972C412.54 170.2 414.303 169.45 416.076 168.721C417.848 167.993 419.629 167.287 421.419 166.603C423.209 165.919 425.007 165.257 426.814 164.618C428.621 163.979 430.435 163.362 432.256 162.767C434.078 162.172 435.907 161.6 437.743 161.051C439.579 160.502 441.421 159.976 443.27 159.473C445.119 158.969 446.974 158.488 448.835 158.031C450.696 157.574 452.562 157.139 454.434 156.728C456.305 156.317 458.182 155.93 460.063 155.565C461.944 155.2 463.83 154.859 465.72 154.541C467.609 154.223 469.503 153.929 471.4 153.658C473.297 153.387 475.197 153.139 477.1 152.915C479.003 152.692 480.909 152.492 482.817 152.315C484.725 152.138 486.635 151.985 488.547 151.856C490.459 151.727 492.372 151.621 494.287 151.54C496.202 151.458 498.117 151.4 500.033 151.366C501.949 151.331 503.865 151.321 505.781 151.334C507.697 151.347 509.613 151.384 511.529 151.445C513.444 151.506 515.358 151.59 517.271 151.698C519.184 151.807 521.096 151.939 523.006 152.094C524.916 152.249 526.824 152.429 528.729 152.632C530.635 152.835 532.538 153.061 534.437 153.311C536.337 153.561 538.234 153.835 540.127 154.132C542.02 154.429 543.909 154.75 545.794 155.094C547.679 155.438 549.56 155.805 551.436 156.195C553.312 156.586 555.183 157 557.049 157.437C558.915 157.874 560.775 158.334 562.629 158.817C564.484 159.3 566.332 159.806 568.174 160.335C570.015 160.864 571.85 161.415 573.679 161.99C575.507 162.565 577.328 163.162 579.141 163.781C582.406 164.902 585.646 166.093 588.859 167.354C592.072 168.616 595.256 169.947 598.411 171.348C601.566 172.749 604.69 174.219 607.781 175.756C610.872 177.293 613.927 178.897 616.948 180.568C619.969 182.239 622.952 183.975 625.897 185.776C628.842 187.577 631.747 189.442 634.61 191.37C637.473 193.298 640.293 195.288 643.07 197.339C645.847 199.39 648.577 201.5 651.262 203.671L652.208 201.668C700.904 242.33 733.032 299.138 738.686 362.755C739.192 368.448 739.867 374.524 739.504 380.237C758.194 396.784 763.563 412.254 768.978 435.974C770.149 441.1 770.607 447.335 772.577 452.152C773.903 455.395 776.781 457.844 778.887 460.603C784.799 468.347 788.806 478.69 789.44 488.419C790.378 502.821 784.193 515.535 774.767 526.11C732.147 573.926 627.211 588.852 564.643 592.122C487.175 596.17 378.892 585.759 308.454 551.846C282.479 540.701 253.664 521.892 240.336 496.096C235.941 486.962 233.573 477.306 234.273 467.116C235.252 452.862 244.049 414.47 250.679 402.239C255.168 393.957 261.868 386.612 268.903 380.415C268.144 356.389 274.047 329.155 281.964 306.572C301.705 250.257 345.08 200.02 399.086 174.093L400.382 175.862ZM400.382 175.862C344.276 204.6 301.344 253.193 281.939 313.469C275.478 333.535 270.22 357.756 270.77 378.908C284.027 365.969 302.964 356.565 319.862 349.395L320.36 344.559C321.291 337.575 321.688 326.205 324.906 320.204C326.035 318.099 327.61 316.653 329.437 315.17C338.044 308.183 347.732 302.067 356.789 295.629C364.641 290.048 372.727 283.317 381.164 278.73C387.1 275.504 393.576 272.935 399.744 270.158L433.345 255.035L460.305 242.914C465.353 240.644 470.452 237.978 475.708 236.264C478.107 235.482 480.153 235.427 482.635 235.708C498.737 237.53 547.499 254.405 562.492 262.087C577.085 267.829 616.15 307.235 629.544 319.931C633.876 324.038 638.119 329.504 643.022 332.845C648.119 336.318 660.131 338.654 666.509 340.818C689.436 348.6 719.709 361.736 737.485 378.555C737.296 373.63 737.005 368.712 736.611 363.8C731.174 300.349 699.636 244.357 651.262 203.671C648.577 201.5 645.847 199.39 643.07 197.339C640.293 195.288 637.473 193.298 634.61 191.37C631.747 189.442 628.842 187.577 625.897 185.776C622.952 183.975 619.969 182.239 616.948 180.568C613.927 178.897 610.872 177.293 607.781 175.756C604.69 174.219 601.566 172.749 598.411 171.348C595.256 169.947 592.072 168.616 588.859 167.354C585.646 166.093 582.406 164.902 579.141 163.781C577.328 163.162 575.507 162.565 573.679 161.99C571.85 161.415 570.015 160.864 568.174 160.335C566.332 159.806 564.484 159.3 562.629 158.817C560.775 158.334 558.915 157.874 557.049 157.437C555.183 157 553.312 156.586 551.436 156.195C549.56 155.805 547.679 155.438 545.794 155.094C543.909 154.75 542.02 154.429 540.127 154.132C538.234 153.835 536.337 153.561 534.437 153.311C532.538 153.061 530.635 152.835 528.729 152.632C526.824 152.429 524.916 152.249 523.006 152.094C521.096 151.939 519.184 151.807 517.271 151.698C515.358 151.59 513.444 151.506 511.529 151.445C509.613 151.384 507.697 151.347 505.781 151.334C503.865 151.321 501.949 151.331 500.033 151.366C498.117 151.4 496.202 151.458 494.287 151.54C492.372 151.621 490.459 151.727 488.547 151.856C486.635 151.985 484.725 152.138 482.817 152.315C480.909 152.492 479.003 152.692 477.1 152.915C475.197 153.139 473.297 153.387 471.4 153.658C469.503 153.929 467.609 154.223 465.72 154.541C463.83 154.859 461.944 155.2 460.063 155.565C458.182 155.93 456.305 156.317 454.434 156.728C452.562 157.139 450.696 157.574 448.835 158.031C446.974 158.488 445.119 158.969 443.27 159.473C441.421 159.976 439.579 160.502 437.743 161.051C435.907 161.6 434.078 162.172 432.256 162.767C430.435 163.362 428.621 163.979 426.814 164.618C425.007 165.257 423.209 165.919 421.419 166.603C419.629 167.287 417.848 167.993 416.076 168.721C414.303 169.45 412.54 170.2 410.786 170.972C409.032 171.744 407.288 172.537 405.554 173.352C403.819 174.167 402.095 175.004 400.382 175.862ZM322.201 347.025C321.058 354.047 323.67 362.138 324.83 369.022C325.309 371.87 325.469 374.812 326.09 377.629C326.559 379.755 327.055 381.302 328.928 382.517L330.289 382.197C333.678 379.197 333.292 374.435 334.211 370.27C335.294 365.367 339.197 360.685 343.396 358.033C348.224 354.985 354.066 354.506 359.544 355.796C373.156 359.002 383.065 372.631 386.318 385.61C387.366 389.795 387.367 394.931 389.685 398.621C397.287 402.28 406.86 404.079 414.992 406.385L463.687 420.139L487.007 426.749C491.147 427.925 495.53 429.581 499.783 430.083C503.007 428.038 504.106 418.153 506.269 414.346C508.884 409.742 513.086 405.967 518.258 404.561C524.467 402.874 531.48 404.358 536.962 407.545C546.395 413.029 553.513 422.945 556.357 433.429C557.204 436.555 557.205 439.953 558.142 443.032C558.979 445.781 560.694 447.268 563.208 448.547C572.992 453.529 584.962 451.693 594.895 448.391C594.959 441.838 595.85 435.308 596.094 428.753C591.661 426.717 587.14 424.692 582.982 422.133C582.117 420.332 580.958 418.266 580.507 416.318C580.196 414.971 580.536 414.33 581.187 413.182C584.654 411.311 591.444 413.954 595.107 414.851C590.651 410.15 585.438 406.135 580.455 402.01C570.714 393.944 560.65 386.069 551.229 377.641C525.165 354.325 500.665 329.447 473.447 307.414C486.462 301.336 500.419 296.724 513.703 291.195C531.457 283.807 548.127 275.172 564.752 265.551L560.372 263.356L560.019 263.239C553.87 261.156 547.941 258.166 541.841 255.882C526.999 250.259 511.921 245.361 496.608 241.188C491.571 239.802 485.805 237.742 480.586 237.642C478.49 237.602 476.224 238.436 474.281 239.178C461.535 244.045 449.07 250.345 436.612 255.957C419.278 263.767 401.68 271.249 384.591 279.567C374.543 284.457 361.57 294.981 352.134 301.678C344.497 307.097 334.807 312.701 328.281 319.231C327.005 320.508 326.274 322.102 325.706 323.787C323.466 330.43 323.107 339.918 322.201 347.025ZM668.258 358.098C673.621 363.339 679.563 368.567 684.122 374.537C688.892 383.128 684.245 395.768 681.69 404.61C680.279 409.495 677.967 413.826 673.417 416.415C672.976 416.664 672.526 416.897 672.068 417.114C675.924 420.5 679.598 424.47 680.012 429.867C680.347 434.227 678.308 438.137 675.481 441.295C662.345 455.972 626.989 466.401 608.183 470.243C602.368 471.433 596.516 472.395 590.627 473.129C584.738 473.864 578.829 474.368 572.9 474.641C563.642 475.038 554.386 474.994 545.132 474.51C535.877 474.026 526.667 473.104 517.501 471.743C502.404 469.568 487.432 466.735 472.584 463.243C441.026 455.92 358.348 433.686 336.349 413.33C333.112 410.335 330.026 406.478 329.989 401.849C329.945 396.477 333.627 392.597 337.19 389.078C336.547 386.539 336.27 384.411 336.349 381.777C333.911 382.89 330.643 384.768 327.897 383.779C326.217 383.174 325.283 381.893 324.678 380.268C323.154 376.169 323.104 371.01 322.142 366.687C302.997 378.958 281.866 393.355 276.52 417.114C273.789 429.249 277.099 441.441 283.721 451.756C306.285 486.903 364.188 505.224 402.961 513.489C487.797 531.574 621.391 527.824 695.651 479.448C699.421 476.993 703.203 474.436 706.718 471.626L706.814 470.87L705.188 469.906C700.541 470.285 668.263 460.292 662.109 458.096C668.933 454.872 676.115 451.905 683.189 449.277C693.315 451.821 703.365 454.866 713.436 457.635L719.534 459.419C728.411 447.468 733.834 436.605 732.775 421.392C732.081 417.694 731.307 413.945 730.044 410.393C720.871 384.582 691.319 369.071 668.258 358.098ZM242.006 494.815L240.336 496.096C253.664 521.892 282.479 540.701 308.454 551.846L310.508 550.098C325.459 557.415 342.4 562.622 358.382 567.078C443.358 590.773 545.884 591.743 631.813 571.913C675.166 561.908 738.778 540.596 763.569 500.501C777.797 477.489 771.202 455.244 765.497 430.9C764.037 445.315 758.864 457.578 749.394 468.603C707.861 516.952 612.375 535.754 550.273 540.327C474.85 545.88 385.294 538.748 315.939 507.39C299.84 500.111 284.157 491.422 270.744 479.813C255.223 466.379 245.119 451.51 243.566 430.458C238.17 453.284 231.221 472.287 242.006 494.815ZM562.721 384.268C571.399 391.722 591.584 406.468 596.963 414.624C602.702 414.144 617.808 411.567 622.704 413.339C623.372 414.064 623.609 414.202 623.61 415.247C623.611 416.912 622.488 418.626 621.327 419.737C617.283 423.607 603.774 426.841 598.096 428.694C597.889 434.988 597.395 441.23 596.955 447.509C622.555 438.045 647.49 426.306 672.147 414.639C679.791 409.445 680.077 401.137 682.157 392.898C678.363 395.022 673.309 398.81 668.933 399.099C668.182 398.804 667.81 398.845 667.39 398.11C666.231 396.08 667.86 392.703 668.529 390.678C673.123 386.331 679.538 383.467 683.692 378.755L683.488 377.465C683.142 376.97 682.785 376.488 682.432 375.998C679.601 372.06 675.826 368.79 672.394 365.377C664.398 357.425 655.755 349.636 648.436 341.06L647.153 340.196L647.051 340.76C645.484 349.179 636.254 355.036 629.639 359.487C612.751 370.849 583.085 383.307 562.721 384.268ZM649.507 339.476C649.169 340.066 648.893 340.552 648.436 341.06C655.755 349.636 664.398 357.425 672.394 365.377C675.826 368.79 679.601 372.06 682.432 375.998C682.785 376.488 683.142 376.97 683.488 377.465C683.405 376.183 683.545 375.685 684.122 374.537C679.563 368.567 673.621 363.339 668.258 358.098C691.319 369.071 720.871 384.582 730.044 410.393C731.307 413.945 732.081 417.694 732.775 421.392C733.372 420.618 734.5 420.52 735.428 420.24C736.043 419.114 735.761 417.601 735.686 416.348C735.281 412.66 736.482 407.71 736.743 403.935C737.259 396.479 737.349 388.971 737.536 381.5C732.592 377.273 727.421 373.346 722.022 369.718C716.623 366.09 711.034 362.785 705.253 359.804C698.534 356.267 654.292 336.642 648.797 338.344L649.507 339.476ZM577.441 275.374C565.739 288.335 552.738 300.434 540.478 312.894C531.916 321.595 523.125 331.978 513.911 339.778L525.829 350.738C546.944 328.953 568.349 307.477 589.282 285.51L577.441 275.374ZM525.566 416.084C521.149 416.973 517.614 418.51 515.087 422.452C512.038 427.209 512.025 433.537 513.302 438.866C515.014 446.016 519.478 452.807 525.861 456.596C528.976 458.446 531.935 459.012 535.512 459.23C539.932 457.911 543.264 455.948 545.518 451.771C548.33 446.557 548.086 440.264 546.343 434.751C544.161 427.85 539.322 421.153 532.735 417.89C530.575 416.82 527.971 416.201 525.566 416.084ZM319.483 351.689C302.37 360.192 285.202 368.717 270.901 381.648C270.919 389.722 270.53 413.902 273.765 420.147C277.879 398.74 291.884 384.094 309.351 372.252C313.358 369.535 317.501 366.953 321.819 364.757C321.479 362.697 320.276 352.679 319.483 351.689ZM683.276 451.671C678.199 453.795 673.138 456.062 667.853 457.626L705.576 468.199C706.505 468.556 707.448 468.988 708.46 468.982C711.333 468.964 715.756 463.43 717.78 461.325C715.703 460.625 713.558 460.101 711.442 459.526C702.078 456.818 692.689 454.2 683.276 451.671ZM630.538 436.066C625.541 438.234 620.53 440.371 615.506 442.477C624.562 444.407 633.526 448.311 642.598 449.707C647.515 447.596 652.429 445.311 657.481 443.549L630.538 436.066ZM582.31 414.172C582.977 416.113 583.602 418.087 584.324 420.008C588.109 422.926 593.003 424.826 597.393 426.671L617.866 419.612C619.303 419.081 620.359 418.35 620.986 416.882C621.23 416.312 621.206 416.276 621.279 415.749L620.706 414.78C606.065 416.348 597.013 417.693 582.31 414.172ZM529.043 406.945L526.841 408.061L526.743 408.686C527.807 408.895 528.868 409.117 529.927 409.352C537.074 410.947 543.979 417.389 547.675 423.49C552.642 431.689 555.164 442.633 552.701 452.057C551.741 455.731 550.209 458.089 547.903 461.054L547.701 461.309C550.257 460.19 552.804 459.038 555.4 458.017C559.359 456.352 562.874 454.949 566.104 452.003C562.709 450.788 558.759 449.964 557.052 446.448C555.233 442.701 555.048 437.821 553.939 433.784C551.03 423.188 543.404 412.038 532.83 407.984C531.591 407.509 530.353 407.167 529.043 406.945ZM357.625 358.289L356.457 359.491C359.497 361.064 363.176 361.31 366.147 362.899C373.555 366.859 379.653 376.834 382.103 384.609C384.414 391.939 384.56 401.257 380.931 408.209C380.1 409.795 379.123 411.286 378.001 412.681C380.767 411.351 383.533 410.059 386.361 408.865C390.012 407.386 393.175 405.883 396.331 403.513C392.932 402.405 388.563 401.481 386.801 398.008C385.095 394.644 385.206 389.404 384.427 385.684C382.23 375.205 372.694 363.034 362.628 359.136C360.92 358.475 359.45 358.226 357.625 358.289ZM683.597 382.503C679.138 385.438 674.125 388.37 670.267 392.077C669.749 393.74 669.14 395.312 669.2 397.076L669.438 397.276C673.874 394.884 678.332 392.525 682.735 390.074C683.32 387.789 684.201 385.306 684.028 382.944L683.597 382.503Z" fill="#16A34A"/>
<path d="M525.431 417.586C527.603 417.716 529.743 418.016 531.745 418.905C537.675 421.537 542.209 427.548 544.373 433.529C546.26 438.746 546.786 445.542 544.287 450.658C542.349 454.626 539.586 456.342 535.551 457.687C532.063 457.568 529.159 457.059 526.123 455.259C520.294 451.803 516.39 445.522 514.766 439.046C513.51 434.034 513.37 427.988 516.236 423.47C518.485 419.924 521.5 418.459 525.431 417.586Z" fill="#16A34A"/>
<path d="M360.628 370.776L360.628 370.776C366.399 373.337 370.856 379.219 372.989 385.113C374.849 390.256 375.342 396.901 372.924 401.853L373.373 402.072L372.924 401.853C371.986 403.773 370.858 405.131 369.489 406.172C368.133 407.203 366.518 407.941 364.564 408.598C361.163 408.475 358.375 407.969 355.464 406.243C349.776 402.87 345.937 396.718 344.337 390.338C343.095 385.382 342.985 379.501 345.744 375.152L345.744 375.152C347.885 371.777 350.737 370.361 354.557 369.503C356.682 369.634 358.728 369.932 360.628 370.776Z" fill="#16A34A" stroke="white"/>
<path d="M649.507 339.476C654.747 343.852 658.547 349.927 664.268 353.755C668.734 356.744 674.591 358.284 679.434 360.739C696.767 369.523 714.459 381.229 725.671 397.429C728.175 401.047 730.775 405.243 732.09 409.473C732.964 412.283 733.267 415.914 734.825 418.383C735.128 417.708 735.432 417.044 735.686 416.348C735.761 417.601 736.043 419.114 735.428 420.24C734.5 420.52 733.372 420.618 732.775 421.392C732.081 417.694 731.307 413.945 730.044 410.393C720.871 384.582 691.319 369.071 668.258 358.098C673.621 363.339 679.563 368.567 684.122 374.537C683.545 375.685 683.405 376.183 683.488 377.465C683.142 376.97 682.785 376.488 682.432 375.998C679.601 372.06 675.826 368.79 672.394 365.377C664.398 357.425 655.755 349.636 648.436 341.06C648.893 340.552 649.169 340.066 649.507 339.476Z" fill="#16A34A"/>
<path d="M242.006 494.815C257.675 522.802 282.695 536.323 310.508 550.098L308.454 551.846C282.479 540.701 253.664 521.892 240.336 496.096L242.006 494.815Z" fill="#16A34A"/>
<path d="M382.809 285.355C383.935 285.684 385.412 286.269 386.047 287.3C387.537 289.715 383.956 324.976 382.68 330.616C382.429 331.727 382.242 333.035 381.248 333.653C375.153 334.311 357.285 328.18 350.361 326.273C347.163 325.454 339.81 324.304 338.014 321.544C337.501 320.755 337.413 319.496 337.629 318.58C337.838 317.695 338.44 317.012 339.093 316.416C344.288 311.67 351.094 307.664 356.847 303.56C365.365 297.483 373.844 290.734 382.809 285.355ZM382.898 306.451C376.145 313.455 369.33 320.399 362.453 327.282L366.14 328.134C370.913 329.557 375.765 331.11 380.682 331.942C381.363 325.57 383.7 312.222 382.898 306.451Z" fill="#16A34A"/>
<path d="M467.69 312.691C468.463 312.74 469.253 312.8 470.007 312.991C479.478 315.394 509.335 349.851 517.404 358.818C520.648 362.423 527.214 368.395 529.196 372.578C529.821 373.897 528.975 375.007 528.438 376.196C521.515 375.527 473.27 361.482 467.656 358.262C466.751 352.005 466.776 319.449 467.69 312.691Z" fill="#16A34A"/>
<path d="M389.626 307.402C390.081 301.972 389.497 295.387 390.682 290.216C390.981 288.915 391.606 287.737 392.818 287.093C395.767 285.525 399.98 287.317 402.991 288.148C411.279 290.205 457.526 302.464 460.814 307.026C461.771 308.355 461.998 311.049 462.108 312.669C462.452 317.747 462.385 351.434 461.619 354.17C461.356 355.11 461.04 355.602 460.312 356.232C456.449 356.547 400.498 340.145 393.535 337.713C392.108 337.215 390.359 336.616 389.21 335.613C387.993 334.551 387.935 332.348 387.899 330.818C387.715 323.146 388.865 315.048 389.626 307.402ZM392.851 296.352C391.985 299.769 391.798 303.211 391.552 306.712L390.507 321.868C397.572 312.976 408.836 302.575 417.042 294.266C412.243 292.898 407.433 291.573 402.61 290.291C400.888 289.917 400.148 289.53 398.541 290.505C396.344 291.837 394.613 294.497 392.851 296.352Z" fill="#16A34A"/>
</svg>
